<?xml version="1.0" encoding="UTF-8" standalone="no"?>
<!-- Created with Inkscape (http://www.inkscape.org/) -->

<svg
   width="127.01929mm"
   height="127.02067mm"
   viewBox="0 0 127.01929 127.02067"
   version="1.1"
   id="svg5"
   inkscape:version="1.1.2 (b8e25be833, 2022-02-05)"
   sodipodi:docname="logo_biblio.svg"
   xmlns:inkscape="http://www.inkscape.org/namespaces/inkscape"
   xmlns:sodipodi="http://sodipodi.sourceforge.net/DTD/sodipodi-0.dtd"
   xmlns="http://www.w3.org/2000/svg"
   xmlns:svg="http://www.w3.org/2000/svg">
  <sodipodi:namedview
     id="namedview7"
     pagecolor="#ffffff"
     bordercolor="#666666"
     borderopacity="1.0"
     inkscape:pageshadow="2"
     inkscape:pageopacity="0.0"
     inkscape:pagecheckerboard="0"
     inkscape:document-units="mm"
     showgrid="false"
     inkscape:zoom="0.64052329"
     inkscape:cx="208.42334"
     inkscape:cy="429.33646"
     inkscape:window-width="1920"
     inkscape:window-height="986"
     inkscape:window-x="-11"
     inkscape:window-y="-11"
     inkscape:window-maximized="1"
     inkscape:current-layer="layer1" />
  <defs
     id="defs2">
    <g
       id="g2424" />
    <clipPath
       id="ebd966489e">
      <path
         d="M 9.28125,11.558594 H 369.33594 V 371.61719 H 9.28125 Z m 0,0"
         clip-rule="nonzero"
         id="path2426" />
    </clipPath>
    <clipPath
       id="7bed0ab5e5">
      <path
         d="m 189.30859,11.558594 c -99.425778,0 -180.02734,80.601562 -180.02734,180.027346 0,99.42968 80.601562,180.03125 180.02734,180.03125 99.42578,0 180.02735,-80.60157 180.02735,-180.03125 0,-99.425784 -80.60157,-180.027346 -180.02735,-180.027346"
         clip-rule="nonzero"
         id="path2429" />
    </clipPath>
    <clipPath
       id="8d05e43300">
      <path
         d="M 9.28125,11.558594 H 369.03906 V 371.32031 H 9.28125 Z m 0,0"
         clip-rule="nonzero"
         id="path2432" />
    </clipPath>
    <clipPath
       id="95f23a119d">
      <path
         d="m 189.16016,11.558594 c -99.343754,0 -179.87891,80.535156 -179.87891,179.878906 0,99.34766 80.535156,179.88281 179.87891,179.88281 99.34375,0 179.8789,-80.53515 179.8789,-179.88281 0,-99.34375 -80.53515,-179.878906 -179.8789,-179.878906"
         clip-rule="nonzero"
         id="path2435" />
    </clipPath>
  </defs>
  <g
     inkscape:label="Capa 1"
     inkscape:groupmode="layer"
     id="layer1"
     transform="translate(-49.962355,-67.642535)">
    <g
       fill="#000000"
       fill-opacity="1"
       id="g2552"
       transform="matrix(0.35277778,0,0,0.35277778,46.688136,63.56492)">
      <g
         transform="translate(156.24963,178.44494)"
         id="g2550">
        <g
           id="g2548" />
      </g>
    </g>
    <g
       fill="#000000"
       fill-opacity="1"
       id="g2638"
       transform="matrix(0.35277778,0,0,0.35277778,46.688136,63.56492)">
      <g
         transform="translate(156.24963,71.045616)"
         id="g2636">
        <g
           id="g2634" />
      </g>
    </g>
    <g
       fill="#000000"
       fill-opacity="1"
       id="g2676"
       transform="matrix(0.35277778,0,0,0.35277778,46.688136,63.56492)">
      <g
         transform="translate(228.87949,313.16884)"
         id="g2674">
        <g
           id="g2672" />
      </g>
    </g>
    <g
       fill="#000000"
       fill-opacity="1"
       id="g2682"
       transform="matrix(0.35277778,0,0,0.35277778,46.688136,63.56492)">
      <g
         transform="translate(237.72149,313.16884)"
         id="g2680">
        <g
           id="g2678" />
      </g>
    </g>
    <g
       fill="#000000"
       fill-opacity="1"
       id="g2704"
       transform="matrix(0.35277778,0,0,0.35277778,46.688136,63.56492)">
      <g
         transform="translate(161.1712,341.13596)"
         id="g2702">
        <g
           id="g2700" />
      </g>
    </g>
    <g
       id="g3688">
      <g
         clip-path="url(#ebd966489e)"
         id="g2450"
         transform="matrix(0.35277778,0,0,0.35277778,46.688136,63.56492)">
        <g
           clip-path="url(#7bed0ab5e5)"
           id="g2448">
          <path
             fill="#ffdebc"
             d="M 9.28125,11.558594 H 369.33594 V 371.61719 H 9.28125 Z m 0,0"
             fill-opacity="1"
             fill-rule="nonzero"
             id="path2446" />
        </g>
      </g>
      <g
         clip-path="url(#8d05e43300)"
         id="g2456"
         transform="matrix(0.35277778,0,0,0.35277778,46.688136,63.56492)">
        <g
           clip-path="url(#95f23a119d)"
           id="g2454">
          <path
             stroke-linecap="butt"
             transform="matrix(1.270251,0,0,1.270251,9.280176,11.559468)"
             fill="none"
             stroke-linejoin="miter"
             d="M 141.60978,-6.88597e-4 C 63.401819,-6.88597e-4 8.45273e-4,63.400286 8.45273e-4,141.60825 c 0,78.21104 63.400973727,141.61201 141.608934727,141.61201 78.20797,0 141.60894,-63.40097 141.60894,-141.61201 0,-78.207964 -63.40097,-141.608938597 -141.60894,-141.608938597"
             stroke="#000000"
             stroke-width="5.89978"
             stroke-opacity="1"
             stroke-miterlimit="4"
             id="path2452" />
        </g>
      </g>
      <g
         fill="#000000"
         fill-opacity="1"
         id="g2464"
         transform="matrix(0.35277778,0,0,0.35277778,46.688136,63.56492)">
        <g
           transform="translate(114.81109,205.70235)"
           id="g2462">
          <g
             id="g2460">
            <path
               d="m 21.578125,0 c 21.574219,0.226562 37.925781,0.910156 54.28125,0.910156 42.695315,0 65.410155,-19.308594 65.410155,-47.695312 0,-26.347656 -20.21484,-39.519532 -48.378905,-42.019532 21.121095,-2.722656 34.976565,-15.214842 34.976565,-35.882812 0,-19.53125 -17.03516,-35.20312 -52.238284,-35.20312 -12.71875,0 -32.703125,0.67968 -54.050781,0.90625 -3.179687,0 -9.539063,-0.45313 -12.492187,-0.45313 -1.589844,0 -1.816407,1.36328 0,1.58984 10.21875,0.22657 16.578124,4.54297 16.578124,20.21485 v 116.285154 c 0,15.667968 -6.359374,19.984375 -16.578124,20.210937 C 7.269531,-0.910156 7.496094,0.453125 9.3125,0.453125 12.039062,0.453125 18.398438,0 21.578125,0 Z M 57.6875,-88.578125 c -1.589844,0 -1.589844,1.363281 0,1.363281 l 13.402344,0.226563 c 31.792966,0.683593 44.742186,17.261719 44.742186,43.609375 0,27.027344 -16.128905,42.46875 -43.152342,42.46875 H 56.324219 c -7.722657,0 -8.855469,-2.722656 -8.855469,-11.582032 V -149.21875 c 0,-7.03906 0.679688,-9.08203 6.8125,-8.85547 L 69.5,-157.39453 c 19.53125,0.91016 34.74609,12.26562 34.74609,34.97656 0,21.35156 -7.039059,31.570314 -33.613278,33.160158 z m 0,0"
               id="path2458" />
          </g>
        </g>
      </g>
      <g
         fill="#000000"
         fill-opacity="1"
         id="g2472"
         transform="matrix(0.35277778,0,0,0.35277778,46.688136,63.56492)">
        <g
           transform="translate(67.950121,276.07382)"
           id="g2470">
          <g
             id="g2468">
            <path
               d="m 37.945312,-15.714844 c -1.535156,1.761719 -4.214843,1.839844 -7.742187,1.761719 1.761719,-3.753906 2.375,-7.511719 1.761719,-10.882813 -0.996094,-5.289062 -3.753906,-7.4375 -5.824219,-8.203124 -1.917969,-0.765626 -3.832031,-0.765626 -5.597656,-0.382813 7.054687,-6.210937 9.734375,-14.71875 8.738281,-19.472656 -0.457031,-2.296875 -1.683594,-3.679688 -3.449219,-3.90625 -4.675781,-0.539063 -9.65625,5.289062 -12.1875,8.8125 -1.917969,2.609375 -3.601562,5.519531 -4.980469,8.355469 1.226563,-4.90625 2.757813,-9.582032 4.519532,-13.875 0.613281,-1.453126 0.539062,-3.140626 -0.304688,-4.519532 l -0.613281,-1 c -0.308594,-0.535156 -0.84375,-0.839844 -1.457031,-0.839844 -0.613282,0.07422 -1.148438,0.457032 -1.378906,0.996094 C 3.371094,-45.765625 -0.078125,-25.144531 0,-2.300781 c 0,1.535156 0.84375,2.835937 2.222656,3.375 l 0.535156,0.230469 c 0.230469,0.074218 0.386719,0.152343 0.613282,0.152343 0.308594,0 0.613281,-0.078125 0.921875,-0.308593 C 4.753906,0.84375 4.984375,0.304688 4.984375,-0.230469 4.675781,-11.574219 5.367188,-22.152344 7.050781,-31.8125 v -0.07813 c 1.382813,-6.4375 7.898438,-18.089844 13.953125,-22.230469 0.07813,-0.07422 3.371094,-1.070312 3.984375,0.386719 1.074219,2.757813 0,6.898437 -2.988281,11.34375 -2.757812,4.0625 -6.746094,7.894531 -10.425781,9.964844 -0.304688,0.152343 -0.460938,0.535156 -0.460938,0.84375 -0.07422,0.382812 0.15625,0.765625 0.460938,0.917969 l 1.074219,0.613281 c 0.460937,0.308593 0.996093,0.460937 1.53125,0.460937 0.539062,0 1.074218,-0.152344 1.613281,-0.460937 l 1.226562,-0.765625 c 0.07422,0 0.07422,0 0.07422,-0.07422 0.152344,-0.07813 0.382812,-0.15625 0.539062,-0.308594 1.683594,-0.996093 4.597657,-1.761719 7.28125,-1.074219 1.074219,0.308594 1.992188,1.457032 2.527344,3.21875 1.074219,3.757813 0.15625,9.8125 -3.90625,15.027344 -2.226562,0.07422 -4.675781,0.382813 -7.285156,0.917969 -4.675781,1.074219 -7.664062,3.679687 -8.8125,6.363281 0,0 -0.078125,0.078125 -0.078125,0.152344 -0.460937,1.074219 -0.613281,2.148438 -0.460937,3.144531 0.382812,2.605469 2.453124,4.214844 5.441406,4.214844 h 0.460937 c 4.140625,-0.230469 9.734375,-3.910156 13.953125,-9.199219 1.074219,-1.457031 2.070313,-2.910156 2.835938,-4.445312 4.0625,0.152344 7.207031,0.152344 9.199218,-2.070313 0.230469,-0.230469 0.230469,-0.613281 0,-0.84375 -0.230468,-0.152343 -0.613281,-0.152343 -0.84375,0.07813 z m -16.175781,3.679688 c -9.351562,9.277344 -12.109375,8.738281 -12.722656,8.355468 -0.996094,-0.613281 -0.613281,-2.375 -0.613281,-2.605468 1.070312,-2.378906 3.753906,-4.753906 8.046875,-5.671875 2.148437,-0.539063 4.140625,-0.769531 6.054687,-0.84375 -0.304687,0.230469 -0.535156,0.535156 -0.765625,0.765625 z m 0,0"
               id="path2466" />
          </g>
        </g>
      </g>
      <g
         fill="#000000"
         fill-opacity="1"
         id="g2480"
         transform="matrix(0.35277778,0,0,0.35277778,46.688136,63.56492)">
        <g
           transform="translate(105.58568,276.07382)"
           id="g2478">
          <g
             id="g2476">
            <path
               d="m 1.917969,-1.839844 c 0.382812,0.078125 0.765625,0.152344 1.148437,0.152344 2.300782,0 4.828125,-1.992188 7.664063,-6.054688 2.378906,-3.449218 4.140625,-7.128906 4.140625,-7.128906 0.152344,-0.308594 0,-0.613281 -0.304688,-0.765625 -0.230468,-0.15625 -0.613281,0 -0.691406,0.230469 -1.378906,2.988281 -4.984375,9.351562 -8.355469,11.726562 H 5.441406 C 5.136719,-3.449219 5.058594,-3.527344 4.984375,-3.601562 4.445312,-3.910156 3.757812,-5.671875 4.0625,-9.277344 4.523438,-13.875 6.4375,-19.625 8.050781,-23.457031 8.585938,-24.683594 8.125,-26.140625 6.976562,-26.90625 L 5.75,-27.671875 c -0.460938,-0.308594 -0.921875,-0.308594 -1.378906,-0.230469 -0.460938,0.152344 -0.84375,0.535156 -1,0.996094 -1.761719,4.0625 -5.902344,17.785156 -3.523438,23.074219 0.457032,0.996093 1.148438,1.6875 2.070313,1.992187 z m 6.359375,-27.828125 c 0.386718,0.15625 0.691406,0.15625 1,0.15625 0.613281,0 1.378906,-0.382812 1.609375,-0.84375 l 1.761719,-2.988281 c 0.460937,-1 0.535156,-1.839844 0.304687,-2.761719 -0.382813,-0.917969 -1.148437,-1.6875 -2.066406,-2.144531 L 10.65625,-38.32813 C 9.660156,-38.789062 8.585938,-38.40625 8.125,-37.5625 l -1.914062,4.140625 c -0.539063,1.226563 -0.078126,2.605469 1.148437,3.21875 z m 0,0"
               id="path2474" />
          </g>
        </g>
      </g>
      <g
         fill="#000000"
         fill-opacity="1"
         id="g2488"
         transform="matrix(0.35277778,0,0,0.35277778,46.688136,63.56492)">
        <g
           transform="translate(119.38283,276.07382)"
           id="g2486">
          <g
             id="g2484">
            <path
               d="m 34.957031,-15.792969 c -0.230469,-0.226562 -0.613281,-0.152343 -0.769531,0.15625 -3.601562,5.363281 -8.8125,9.351563 -13.796875,11.957031 2.683594,-2.988281 4.753906,-6.976562 5.519531,-8.660156 4.292969,-9.277344 4.367188,-14.949218 0.152344,-17.402344 -0.996094,-0.535156 -2.222656,-0.613281 -3.679688,-0.07812 -0.996093,0.382812 -2.070312,0.996093 -3.296874,1.992187 -0.07422,0 -0.152344,0.07813 -0.152344,0.15625 -4.140625,3.371094 -9.429688,10.578125 -14.105469,22.6875 -0.074219,-3.292969 0.078125,-6.898437 0.460937,-10.5 0.152344,0 0.382813,-0.07813 0.535157,-0.230469 17.097656,-23.992187 18.09375,-35.644531 17.324219,-40.246094 v -0.07422 l -0.226563,-0.996094 c -0.386719,-1.457031 -1.152344,-2.609375 -2.070313,-2.992188 -2.070312,-0.839843 -3.527343,-0.226562 -5.136718,1.074219 -2.53125,1.992188 -9.046875,9.121094 -13.953125,31.890625 C -1.378906,-12.57031 -0.460938,-1.148436 0.078125,3.144533 0.304688,4.675783 1.226562,5.980471 2.53125,6.667971 L 4.371094,7.589844 C 4.597656,7.664062 4.753906,7.742188 4.984375,7.742188 5.289062,7.742188 5.519531,7.664062 5.75,7.4375 6.210938,7.128906 6.363281,6.59375 6.210938,6.132812 c -0.613282,-2.070312 -1,-4.90625 -1.226563,-8.203124 4.597656,-12.878907 10.269531,-21.15625 14.714844,-24.835938 0.921875,-0.460938 3.222656,-1.378906 4.292969,-0.382812 0.996093,0.996093 0.691406,5.058593 -3.21875,13.566406 -3.140626,6.746094 -6.285157,11.117187 -8.585938,11.5 C 11.574219,-2.070312 11.039062,-2.300781 10.5,-2.757812 10.042969,-3.144531 9.734375,-3.679688 9.351562,-4.214844 9.121094,-4.445312 8.816406,-4.523438 8.507812,-4.371094 c -0.230468,0.15625 -0.304687,0.539063 -0.152343,0.769532 0.460937,0.613281 0.84375,1.148437 1.304687,1.609374 0.613282,0.6875 1.300782,1.148438 1.992188,1.457032 C 12.339844,-0.152344 13.109375,0 13.875,0 h 0.382812 l 0.691407,-0.152344 h 0.07422 c 0.613281,-0.152344 1.226562,-0.382812 1.765624,-0.691406 6.132813,-2.375 13.644532,-7.128906 18.320313,-14.179688 0.152344,-0.230468 0.07422,-0.613281 -0.152345,-0.769531 z M 6.976562,-25.449219 C 8.125,-30.125 10.65625,-38.40625 13.183594,-45.226562 17.707031,-56.957031 19.855469,-57.722656 20.3125,-57.722656 h 0.07813 C 21.539062,-57.570312 22,-56.113281 22,-55.804688 c 0.382812,1.992188 0.382812,5.902344 -1.839844,12.1875 -2.605468,7.433594 -7.589844,16.328126 -14.640625,26.371094 0.304688,-2.761718 0.84375,-5.519531 1.457031,-8.203125 z m 0,0"
               id="path2482" />
          </g>
        </g>
      </g>
      <g
         fill="#000000"
         fill-opacity="1"
         id="g2496"
         transform="matrix(0.35277778,0,0,0.35277778,46.688136,63.56492)">
        <g
           transform="translate(153.41581,276.07382)"
           id="g2494">
          <g
             id="g2492">
            <path
               d="m 21.386719,-15.867188 c -0.304688,-0.152343 -0.613281,0 -0.765625,0.304688 -0.07813,0.07813 -5.671875,11.5 -10.65625,16.40625 H 9.890625 c 0,0 -1.613281,1.300781 -2.914063,0.535156 C 5.441406,0.460938 3.449219,-3.527344 5.902344,-19.625 c 0.078125,0 0.078125,0 0.078125,-0.07422 6.589843,-7.207031 16.632812,-27.90625 15.175781,-35.722656 L 21.082031,-55.5 c -0.230469,-1.457031 -1,-2.453125 -2.070312,-2.988281 -1.304688,-0.613281 -2.683594,-0.539063 -4.0625,0.152343 -5.671875,3.066407 -11.347657,18.089844 -14.335938,38.175782 -1.457031,9.503906 -1.457031,16.175781 0.078125,20.390625 0.765625,2.070312 2.144532,2.988281 3.21875,3.371093 0.6875,0.230469 1.457032,0.382813 2.144532,0.382813 0.769531,0 1.609374,-0.152344 2.222656,-0.457031 C 9.046875,3.066406 9.8125,2.453125 10.65625,1.6875 c 5.210938,-4.984375 10.730469,-16.253906 10.960938,-16.789062 0.152343,-0.304688 0,-0.613282 -0.230469,-0.765626 z M 6.746094,-24.375 c 4.367187,-24.683594 9.886718,-31.355469 12.417968,-31.355469 0.535157,-0.07422 0.765626,0.230469 0.84375,0.539063 1.300782,6.972656 -7.511718,25.601562 -13.722656,33.421875 z m 0,0"
               id="path2490" />
          </g>
        </g>
      </g>
      <g
         fill="#000000"
         fill-opacity="1"
         id="g2504"
         transform="matrix(0.35277778,0,0,0.35277778,46.688136,63.56492)">
        <g
           transform="translate(173.88158,276.07382)"
           id="g2502">
          <g
             id="g2500">
            <path
               d="m 1.917969,-1.839844 c 0.382812,0.078125 0.765625,0.152344 1.148437,0.152344 2.300782,0 4.828125,-1.992188 7.664063,-6.054688 2.378906,-3.449218 4.140625,-7.128906 4.140625,-7.128906 0.152344,-0.308594 0,-0.613281 -0.304688,-0.765625 -0.230468,-0.15625 -0.613281,0 -0.691406,0.230469 -1.378906,2.988281 -4.984375,9.351562 -8.355469,11.726562 H 5.441406 C 5.136719,-3.449219 5.058594,-3.527344 4.984375,-3.601562 4.445312,-3.910156 3.757812,-5.671875 4.0625,-9.277344 4.523438,-13.875 6.4375,-19.625 8.050781,-23.457031 8.585938,-24.683594 8.125,-26.140625 6.976562,-26.90625 L 5.75,-27.671875 c -0.460938,-0.308594 -0.921875,-0.308594 -1.378906,-0.230469 -0.460938,0.152344 -0.84375,0.535156 -1,0.996094 -1.761719,4.0625 -5.902344,17.785156 -3.523438,23.074219 0.457032,0.996093 1.148438,1.6875 2.070313,1.992187 z m 6.359375,-27.828125 c 0.386718,0.15625 0.691406,0.15625 1,0.15625 0.613281,0 1.378906,-0.382812 1.609375,-0.84375 l 1.761719,-2.988281 c 0.460937,-1 0.535156,-1.839844 0.304687,-2.761719 -0.382813,-0.917969 -1.148437,-1.6875 -2.066406,-2.144531 L 10.65625,-38.32813 C 9.660156,-38.789062 8.585938,-38.40625 8.125,-37.5625 l -1.914062,4.140625 c -0.539063,1.226563 -0.078126,2.605469 1.148437,3.21875 z m 0,0"
               id="path2498" />
          </g>
        </g>
      </g>
      <g
         fill="#000000"
         fill-opacity="1"
         id="g2512"
         transform="matrix(0.35277778,0,0,0.35277778,46.688136,63.56492)">
        <g
           transform="translate(187.67873,276.07382)"
           id="g2510">
          <g
             id="g2508">
            <path
               d="m 28.746094,-15.636719 c -0.152344,-0.230469 -0.535156,-0.382812 -0.765625,-0.15625 -0.07813,0 -6.058594,3.757813 -11.652344,2.453125 0.765625,-2.296875 1.074219,-4.675781 0.996094,-6.820312 -0.230469,-3.910156 -1.839844,-6.667969 -4.597657,-7.667969 -1.6875,-0.613281 -3.375,-0.535156 -5.0625,0.308594 -3.21875,1.6875 -5.976562,6.054687 -7.664062,12.035156 -1.457031,5.210937 0.304688,8.96875 2.375,10.730469 1.226562,0.996094 2.609375,1.457031 4.0625,1.457031 1,0 1.917969,-0.230469 2.839844,-0.6875 3.0625,-1.457031 5.363281,-4.679687 6.667968,-8.203125 0.917969,0.152344 1.839844,0.304688 2.835938,0.304688 0.996094,0 2.144531,-0.152344 3.296875,-0.382813 3.601563,-0.765625 6.363281,-2.527344 6.515625,-2.605469 0.230469,-0.152344 0.304688,-0.535156 0.152344,-0.765625 z m -18.320313,9.582031 c -1.226562,0.917969 -2.53125,0.996094 -3.679687,0.230469 -1.6875,-1.152343 -3.066406,-4.371093 -1.609375,-9.8125 0.613281,-2.300781 1.53125,-4.292969 2.683593,-5.828125 0.074219,1.457032 0.613282,3.449219 2.527344,5.671875 1.226563,1.457031 2.605469,2.53125 4.292969,3.144531 0.07813,0.07813 0.152344,0.07813 0.230469,0.07813 -0.996094,2.605468 -2.53125,4.980468 -4.445313,6.515624 z m 4.828125,-7.589843 c -0.07422,0 -0.152344,0 -0.230468,-0.07813 -1.148438,-0.457032 -2.070313,-1.457032 -2.605469,-2.835938 -1.226563,-3.140625 -0.460938,-7.359375 0,-8.660156 0.230469,-0.07813 0.382812,-0.07813 0.535156,-0.07813 1.074219,-0.152344 1.917969,0.382813 2.378906,1.457031 0.613281,1.304688 0.84375,2.757813 0.84375,3.757813 0.152344,1.992187 -0.230469,4.289062 -0.921875,6.4375 z m 0,0"
               id="path2506" />
          </g>
        </g>
      </g>
      <g
         fill="#000000"
         fill-opacity="1"
         id="g2520"
         transform="matrix(0.35277778,0,0,0.35277778,46.688136,63.56492)">
        <g
           transform="translate(214.73648,276.07382)"
           id="g2518">
          <g
             id="g2516">
            <path
               d="m 20.46875,-15.636719 c -0.308594,-0.15625 -0.613281,0 -0.769531,0.304688 -0.07422,0.07813 -5.671875,11.5 -10.578125,16.25 0,0 -1.53125,1.226562 -2.835938,0.460937 -1.457031,-0.84375 -3.371094,-4.675781 -0.996094,-20.238281 0.078126,0 0.078126,0 0.078126,-0.07422 2.910156,-3.21875 6.589843,-9.199218 9.503906,-15.484375 1.457031,0.07422 2.835937,0.152344 4.214844,0.152344 4.0625,0 8.050781,-0.460937 11.269531,-1.761719 0.308593,-0.07813 0.382812,-0.460937 0.308593,-0.691406 -0.07812,-0.304688 -0.460937,-0.460938 -0.769531,-0.382812 -4.0625,1.609374 -9.351562,1.917968 -14.488281,1.53125 3.144531,-6.898438 5.367188,-14.027344 4.601562,-17.9375 v -0.07422 c -0.308593,-1.457031 -0.996093,-2.378907 -2.070312,-2.914063 -1.304688,-0.613281 -2.757812,-0.535156 -4.214844,0.230469 -3.757812,2.144531 -7.359375,9.199219 -10.042968,19.164063 -1.917969,-0.382813 -3.527344,-0.765626 -4.828126,-1.074219 -3.910156,-0.996094 -7.285156,-0.84375 -9.199218,0.382812 -0.84375,0.539063 -1.457032,1.304688 -1.609375,2.222657 -0.07813,0.308593 0.152343,0.613281 0.457031,0.691406 0.308594,0.07813 0.613281,-0.152344 0.691406,-0.460938 0.07813,-0.613281 0.460938,-1.148437 1.074219,-1.53125 1.683594,-1.074218 4.675781,-1.152344 8.355469,-0.230468 l 4.75,1.074218 C 2.144531,-31.046875 1.074219,-25.375 0.382812,-19.316406 -0.917969,-8.125 -0.996094,-2.988281 0.230469,0.304688 c 0.6875,1.996093 2.070312,2.914062 3.140625,3.296874 0.613281,0.308594 1.304687,0.382813 1.996094,0.382813 0.84375,0 1.609374,-0.152344 2.222656,-0.457031 C 8.277344,3.144531 9.046875,2.53125 9.8125,1.761719 h 0.078125 c 5.058594,-4.828125 10.578125,-16.097657 10.804687,-16.632813 0.15625,-0.308594 0.07813,-0.613281 -0.226562,-0.765625 z M 18.089844,-53.8125 c 0.539062,0 0.769531,0.304688 0.84375,0.535156 0.691406,3.757813 -1.609375,10.808594 -4.753906,17.632813 -1.839844,-0.152344 -3.601563,-0.308594 -5.289063,-0.613281 C 12.417969,-49.75 16.175781,-53.734375 18.089844,-53.8125 Z M 6.054688,-23.457031 c 0.84375,-4.445313 1.6875,-8.355469 2.53125,-11.652344 1.609374,0.230469 3.371093,0.382813 5.136718,0.539063 -2.53125,5.289062 -5.519531,10.347656 -8.050781,13.566406 0.078125,-0.765625 0.230469,-1.609375 0.382813,-2.453125 z m 0,0"
               id="path2514" />
          </g>
        </g>
      </g>
      <g
         fill="#000000"
         fill-opacity="1"
         id="g2528"
         transform="matrix(0.35277778,0,0,0.35277778,46.688136,63.56492)">
        <g
           transform="translate(234.43575,276.07382)"
           id="g2526">
          <g
             id="g2524">
            <path
               d="m 23.761719,-15.714844 c -0.226563,-0.152344 -0.535157,-0.07813 -0.765625,0.152344 -6.4375,8.585938 -10.347656,12.035156 -13.644532,13.261719 H 9.277344 C 7.894531,-1.917969 6.667969,-2.222656 5.824219,-3.21875 4.140625,-5.136719 4.0625,-9.121094 5.597656,-13.566406 c 1.53125,-0.308594 7.664063,-1.6875 10.421875,-6.824219 0.84375,-1.6875 1,-3.066406 0.84375,-4.140625 0,-0.230469 -0.07422,-0.535156 -0.152343,-0.765625 C 16.558594,-25.757812 16.40625,-26.0625 16.25,-26.371094 15.40625,-27.75 13.875,-28.59375 12.339844,-28.59375 c -3.523438,0 -8.582032,3.527344 -12.339844,13.1875 -2.222656,5.824219 -1.074219,9.425781 0.304688,11.421875 1.6875,2.453125 4.21875,3.371094 5.828124,3.371094 1.148438,0 2.300782,-0.230469 3.449219,-0.613281 0,0 0.078125,0 0.078125,-0.078126 3.984375,-1.378906 8.125,-5.519531 14.257813,-13.566406 0.152343,-0.308594 0.152343,-0.613281 -0.15625,-0.84375 z m -17.550781,0.613282 c 3.21875,-7.742188 5.902343,-10.042969 7.585937,-10.578126 0.539063,-0.230468 0.996094,-0.152343 1.382813,0.07813 l 0.457031,0.613281 c 0.382812,1.148437 0.15625,2.605469 -0.613281,4.0625 -2.222657,4.0625 -6.898438,5.59375 -8.96875,6.054687 z m 0,0"
               id="path2522" />
          </g>
        </g>
      </g>
      <g
         fill="#000000"
         fill-opacity="1"
         id="g2536"
         transform="matrix(0.35277778,0,0,0.35277778,46.688136,63.56492)">
        <g
           transform="translate(257.27769,276.07382)"
           id="g2534">
          <g
             id="g2532">
            <path
               d="m 27.136719,-15.792969 c -0.230469,-0.152343 -0.613281,-0.152343 -0.765625,0.07813 -7.4375,9.890625 -11.960938,13.875 -15.714844,15.253906 H 10.57812 C 8.816406,0 7.359375,-0.382812 6.210938,-1.609375 3.984375,-4.214844 4.0625,-9.503906 6.4375,-15.101562 c 4.371094,-10.578126 8.050781,-12.265626 8.96875,-12.035157 1.304688,0.308594 1.765625,1.917969 1.765625,1.992188 0.152344,0.996093 0.152344,2.222656 0,3.449219 -0.07813,0.308593 0.152344,0.613281 0.460937,0.691406 0.304688,0 0.613282,-0.230469 0.613282,-0.535156 0.457031,-2.761719 0.07422,-5.214844 -1.152344,-6.746094 -0.765625,-1.074219 -1.914062,-1.6875 -3.296875,-1.917969 -3.523437,-0.460937 -9.351563,3.066406 -13.71875,14.640625 -2.609375,6.671875 -1.226563,10.808594 0.304687,13.109375 1.917969,2.757813 4.753907,3.757813 6.59375,3.757813 1.300782,0 2.605469,-0.230469 3.910157,-0.691407 h 0.152343 c 4.523438,-1.6875 9.273438,-6.363281 16.25,-15.636719 0.152344,-0.230468 0.07813,-0.613281 -0.152343,-0.769531 z m 0,0"
               id="path2530" />
          </g>
        </g>
      </g>
      <g
         fill="#000000"
         fill-opacity="1"
         id="g2544"
         transform="matrix(0.35277778,0,0,0.35277778,46.688136,63.56492)">
        <g
           transform="translate(283.41563,276.07382)"
           id="g2542">
          <g
             id="g2540">
            <path
               d="m 27.828125,-15.867188 c -0.308594,-0.07812 -0.613281,0.07422 -0.691406,0.304688 -1.074219,5.445312 -3.21875,12.878906 -5.519531,17.019531 -0.382813,0.460938 -1.378907,1.609375 -2.453126,0.996094 -0.535156,-0.308594 -1.304687,-3.296875 -0.304687,-10.808594 0.839844,-6.59375 2.757813,-13.722656 4.980469,-19.011719 0.460937,-1.226562 0.152344,-2.757812 -1.074219,-3.832031 l -1.148437,-1.074219 c -0.382813,-0.382812 -0.996094,-0.613281 -1.535157,-0.613281 -0.535156,0.07813 -0.917969,0.308594 -1.300781,0.769531 -1.074219,2.066407 -2.222656,4.980469 -3.144531,8.355469 v -0.15625 c -0.457031,-1.839843 -1.53125,-3.21875 -2.910157,-3.910156 -1.074218,-0.457031 -2.683593,-0.457031 -4.292968,0.15625 -2.148438,0.84375 -6.132813,3.371094 -8.203125,10.960937 -1.535157,6.363282 -0.460938,9.8125 0.535156,11.652344 1.226563,1.839844 2.835937,2.300782 3.449219,2.453125 0.308594,0.074219 0.539062,0.074219 0.84375,0.074219 1.6875,0 3.679687,-0.996094 5.519531,-3.523438 0.07813,-0.15625 0.152344,-0.230468 0.308594,-0.308593 0,-0.074219 0.07422,-0.074219 0.07422,-0.152344 0.84375,-1.226563 1.6875,-2.683594 2.453124,-4.597656 -0.304687,4.445312 -0.382812,11.035156 1.6875,14.484375 0.765626,1.304687 1.761719,2.070312 3.066407,2.226562 h 0.304687 c 2.453125,0 4.675782,-3.375 7.054688,-10.273437 1.6875,-5.136719 2.757812,-10.425781 2.835937,-10.503907 -0.07813,-0.304687 -0.230469,-0.613281 -0.535157,-0.6875 z m -12.878906,-4.828124 c -0.382813,1.53125 -0.613281,3.0625 -0.84375,4.675781 -1.378907,3.984375 -2.761719,6.898437 -4.140625,8.890625 -1.226563,1.609375 -2.683594,1.6875 -3.296875,1.304687 -0.6875,-0.386719 -2.296875,-1.304687 -0.457031,-10.121093 1.683593,-8.277344 5.289062,-9.65625 6.4375,-9.503907 0.84375,0.152344 1.609374,0.996094 1.917968,1.839844 0.226563,0.765625 0.382813,1.761719 0.382813,2.914063 z m 0,0"
               id="path2538" />
          </g>
        </g>
      </g>
      <path
         fill="#ffdebc"
         d="M 91.942911,126.51646 V 84.830806 H 107.1909 V 126.51646 H 91.942911"
         fill-opacity="1"
         fill-rule="nonzero"
         id="path2546"
         style="stroke-width:0.352778" />
      <g
         fill="#000000"
         fill-opacity="1"
         id="g2560"
         transform="matrix(0.35277778,0,0,0.35277778,46.688136,63.56492)">
        <g
           transform="translate(156.24963,167.6196)"
           id="g2558">
          <g
             id="g2556">
            <path
               d="m -6.253906,-15.101562 c 0.699218,0.609374 0.730468,1.675781 0.699218,3.082031 -1.492187,-0.703125 -2.988281,-0.945313 -4.332031,-0.703125 -2.105469,0.398437 -2.957031,1.496094 -3.261719,2.320312 -0.304687,0.761719 -0.304687,1.523438 -0.152343,2.226563 -2.472657,-2.808594 -5.859375,-3.875 -7.75,-3.480469 -0.917969,0.183594 -1.464844,0.671875 -1.558594,1.375 -0.210937,1.859375 2.105469,3.84375 3.511719,4.851562 1.035156,0.761719 2.195312,1.433594 3.324218,1.980469 -1.953124,-0.488281 -3.8125,-1.097656 -5.523437,-1.796875 -0.578125,-0.246094 -1.25,-0.214844 -1.800781,0.121094 l -0.394532,0.242188 c -0.214843,0.125 -0.335937,0.335937 -0.335937,0.582031 0.03125,0.242187 0.183594,0.457031 0.398437,0.546875 C -18.214844,-1.34375 -10.007812,0.03125 -0.914062,0 -0.304688,0 0.214844,-0.335938 0.425781,-0.886719 l 0.09375,-0.210937 C 0.550781,-1.191406 0.578125,-1.25 0.578125,-1.34375 c 0,-0.121094 -0.027344,-0.242188 -0.121094,-0.363281 -0.121093,-0.183594 -0.335937,-0.277344 -0.5468748,-0.277344 -4.5156252,0.125 -8.7265622,-0.152344 -12.5703122,-0.824219 h -0.03125 c -2.5625,-0.546875 -7.199219,-3.140625 -8.847656,-5.550781 -0.03125,-0.03125 -0.429688,-1.34375 0.152343,-1.585937 1.097657,-0.429688 2.746094,0 4.515625,1.1875 1.617188,1.101562 3.140625,2.6875 3.964844,4.152343 0.0625,0.121094 0.214844,0.179688 0.335938,0.179688 0.152343,0.03125 0.304687,-0.058594 0.367187,-0.179688 l 0.242187,-0.429687 c 0.125,-0.183594 0.183594,-0.394532 0.183594,-0.609375 0,-0.214844 -0.05859,-0.425781 -0.183594,-0.640625 l -0.304687,-0.488282 c 0,-0.03125 0,-0.03125 -0.03125,-0.03125 -0.02734,-0.058593 -0.05859,-0.152343 -0.121094,-0.210937 -0.394531,-0.671875 -0.699219,-1.832031 -0.425781,-2.898437 0.121094,-0.429688 0.578125,-0.792969 1.28125,-1.007813 1.496094,-0.425781 3.90625,-0.0625 5.980469,1.554687 0.027343,0.886719 0.152343,1.863282 0.363281,2.898438 0.429688,1.863281 1.464844,3.050781 2.535156,3.507812 0,0 0.027344,0.03125 0.058594,0.03125 0.429688,0.183594 0.855469,0.246094 1.253906,0.183594 1.035156,-0.152344 1.675782,-0.976562 1.675782,-2.164062 V -5.09375 C 0.214844,-6.742188 -1.25,-8.96875 -3.355469,-10.648438 -3.9375,-11.074219 -4.515625,-11.472656 -5.125,-11.777344 c 0.058594,-1.617187 0.058594,-2.867187 -0.824219,-3.660156 -0.089843,-0.09375 -0.246093,-0.09375 -0.335937,0 -0.0625,0.08984 -0.0625,0.242188 0.03125,0.335938 z m 1.464844,6.4375 c 3.691406,3.722656 3.476562,4.820312 3.324218,5.0625 C -1.707031,-3.203125 -2.410156,-3.355469 -2.5,-3.355469 -3.449219,-3.78125 -4.394531,-4.851562 -4.757812,-6.558594 -4.972656,-7.414062 -5.066406,-8.207031 -5.09375,-8.96875 c 0.089844,0.121094 0.210938,0.210938 0.304688,0.304688 z m 0,0"
               id="path2554" />
          </g>
        </g>
      </g>
      <g
         fill="#000000"
         fill-opacity="1"
         id="g2568"
         transform="matrix(0.35277778,0,0,0.35277778,46.688136,63.56492)">
        <g
           transform="translate(156.24963,152.63943)"
           id="g2566">
          <g
             id="g2564">
            <path
               d="m -0.730469,-0.761719 c 0.027344,-0.152343 0.058594,-0.304687 0.058594,-0.457031 0,-0.917969 -0.792969,-1.921875 -2.410156,-3.050781 -1.371094,-0.949219 -2.835938,-1.648438 -2.835938,-1.648438 -0.121093,-0.0625 -0.246093,0 -0.304687,0.121094 -0.0625,0.089844 0,0.242187 0.089844,0.273437 1.191406,0.550782 3.722656,1.984376 4.667968,3.328126 v 0.027343 c 0.09375,0.125 0.0625,0.15625 0.03125,0.183594 -0.121094,0.214844 -0.824218,0.488281 -2.257812,0.367187 -1.832032,-0.183593 -4.117188,-0.945312 -5.644532,-1.585937 -0.488281,-0.214844 -1.066406,-0.03125 -1.371093,0.425781 l -0.308594,0.488282 c -0.121094,0.183593 -0.121094,0.367187 -0.08984,0.550781 0.0625,0.183593 0.214844,0.335937 0.398438,0.394531 1.613281,0.703125 7.078125,2.351562 9.179687,1.40625 0.398438,-0.183594 0.671875,-0.460938 0.796875,-0.824219 z m -11.078125,-2.535156 c 0.0625,-0.152344 0.0625,-0.273437 0.0625,-0.394531 0,-0.246094 -0.152344,-0.550782 -0.335937,-0.640625 l -1.191407,-0.703125 c -0.394531,-0.183594 -0.730468,-0.210938 -1.097656,-0.121094 -0.363281,0.152344 -0.671875,0.457031 -0.851562,0.824219 l -0.03125,0.089843 c -0.183594,0.398438 -0.03125,0.824219 0.304687,1.007813 l 1.648438,0.761719 c 0.488281,0.214844 1.035156,0.03125 1.28125,-0.457032 z m 0,0"
               id="path2562" />
          </g>
        </g>
      </g>
      <g
         fill="#000000"
         fill-opacity="1"
         id="g2576"
         transform="matrix(0.35277778,0,0,0.35277778,46.688136,63.56492)">
        <g
           transform="translate(156.24963,147.14771)"
           id="g2574">
          <g
             id="g2572">
            <path
               d="m -6.285156,-13.914062 c -0.089844,0.09375 -0.0625,0.246093 0.0625,0.308593 2.132812,1.433594 3.722656,3.507813 4.757812,5.488281 -1.191406,-1.066406 -2.777344,-1.890624 -3.445312,-2.195312 -3.695313,-1.707031 -5.953125,-1.738281 -6.925782,-0.0625 -0.214843,0.398438 -0.246093,0.886719 -0.03125,1.464844 0.152344,0.398437 0.394532,0.824218 0.792969,1.3125 0,0.03125 0.03125,0.0625 0.05859,0.0625 1.34375,1.648437 4.210937,3.753906 9.03125,5.613281 -1.3125,0.03125 -2.746094,-0.03125 -4.179687,-0.183594 0,-0.0625 -0.03125,-0.152343 -0.089844,-0.214843 -9.550782,-6.800782 -14.1875,-7.199219 -16.019532,-6.894532 h -0.02734 l -0.398438,0.09375 c -0.578125,0.152344 -1.039062,0.457032 -1.191406,0.824219 -0.335937,0.820313 -0.08984,1.402344 0.429687,2.042969 0.792969,1.007812 3.628907,3.597656 12.691407,5.550781 5.765625,1.253906 10.3125,0.886719 12.019531,0.671875 0.609375,-0.089844 1.128906,-0.457031 1.40625,-0.976562 L 3.01953,-1.738281 c 0.03125,-0.09375 0.0625,-0.152344 0.0625,-0.246094 0,-0.121094 -0.03125,-0.210937 -0.121093,-0.304687 -0.125,-0.183594 -0.335938,-0.242188 -0.519532,-0.183594 -0.824218,0.246094 -1.953125,0.398437 -3.265625,0.488281 -5.125,-1.828125 -8.421875,-4.085937 -9.882812,-5.855469 -0.183594,-0.367187 -0.550781,-1.28125 -0.15625,-1.710937 0.398437,-0.394531 2.015625,-0.273438 5.402343,1.28125 2.683594,1.253906 4.421876,2.503906 4.574219,3.417969 0.0625,0.246093 -0.027343,0.457031 -0.210937,0.671874 -0.152344,0.183594 -0.367188,0.304688 -0.582032,0.457032 -0.089843,0.09375 -0.121093,0.214844 -0.058593,0.335937 0.058593,0.089844 0.210937,0.121094 0.304687,0.0625 0.242188,-0.183593 0.457032,-0.335937 0.640625,-0.519531 0.273438,-0.246094 0.457031,-0.519531 0.578125,-0.792969 C -0.0625,-4.910156 0,-5.21875 0,-5.523438 v -0.152343 l -0.0625,-0.273438 v -0.03125 c -0.058594,-0.242187 -0.152344,-0.488281 -0.273438,-0.699219 -0.945312,-2.441406 -2.835937,-5.433593 -5.644531,-7.292968 -0.089843,-0.0625 -0.242187,-0.03125 -0.304687,0.05859 z m -3.84375,11.136718 c -1.863282,-0.457031 -5.15625,-1.464844 -7.871094,-2.46875 -4.667969,-1.800781 -4.972656,-2.65625 -4.972656,-2.839844 v -0.03125 c 0.05859,-0.457031 0.640625,-0.640624 0.761718,-0.640624 0.792969,-0.152344 2.347657,-0.152344 4.851563,0.734374 2.957031,1.035157 6.496094,3.019532 10.496094,5.828126 -1.101563,-0.125 -2.199219,-0.335938 -3.265625,-0.582032 z m 0,0"
               id="path2570" />
          </g>
        </g>
      </g>
      <g
         fill="#000000"
         fill-opacity="1"
         id="g2584"
         transform="matrix(0.35277778,0,0,0.35277778,46.688136,63.56492)">
        <g
           transform="translate(156.24963,133.60149)"
           id="g2582">
          <g
             id="g2580">
            <path
               d="m -6.316406,-8.511719 c -0.058594,0.121094 0,0.242188 0.121094,0.304688 0.03125,0.03125 4.578124,2.257812 6.53125,4.242187 V -3.9375 c 0,0 0.519531,0.640625 0.214843,1.160156 -0.367187,0.609375 -1.953125,1.40625 -8.359375,0.429688 0,-0.03125 0,-0.03125 -0.03125,-0.03125 -2.867187,-2.625 -11.105468,-6.621094 -14.21875,-6.042969 l -0.03125,0.03125 c -0.578125,0.09375 -0.976562,0.398437 -1.1875,0.824219 -0.246094,0.519531 -0.214844,1.066406 0.05859,1.617187 1.222656,2.257813 7.203125,4.515625 15.195312,5.707031 3.78125,0.578126 6.4375,0.578126 8.1132818,-0.03125 C 0.914058,-0.578125 1.281246,-1.128906 1.43359,-1.554688 1.52734,-1.832031 1.585934,-2.136719 1.585934,-2.410156 1.585934,-2.714844 1.52734,-3.050781 1.40234,-3.296875 1.21875,-3.601562 0.976562,-3.90625 0.671875,-4.242188 -1.3125,-6.316406 -5.796875,-8.511719 -6.011719,-8.605469 c -0.121093,-0.058593 -0.242187,0 -0.304687,0.09375 z m -3.386719,5.828125 c -9.824219,-1.742187 -12.476563,-3.9375 -12.476563,-4.945312 -0.03125,-0.210938 0.08984,-0.304688 0.210938,-0.335938 2.777344,-0.515625 10.191406,2.992188 13.304688,5.464844 z m 0,0"
               id="path2578" />
          </g>
        </g>
      </g>
      <g
         fill="#000000"
         fill-opacity="1"
         id="g2592"
         transform="matrix(0.35277778,0,0,0.35277778,46.688136,63.56492)">
        <g
           transform="translate(156.24963,125.45546)"
           id="g2590">
          <g
             id="g2588">
            <path
               d="m -0.730469,-0.761719 c 0.027344,-0.152343 0.058594,-0.304687 0.058594,-0.457031 0,-0.917969 -0.792969,-1.921875 -2.410156,-3.050781 -1.371094,-0.949219 -2.835938,-1.648438 -2.835938,-1.648438 -0.121093,-0.0625 -0.246093,0 -0.304687,0.121094 -0.0625,0.089844 0,0.242187 0.089844,0.273437 1.191406,0.550782 3.722656,1.984376 4.667968,3.328126 v 0.027343 c 0.09375,0.125 0.0625,0.15625 0.03125,0.183594 -0.121094,0.214844 -0.824218,0.488281 -2.257812,0.367187 -1.832032,-0.183593 -4.117188,-0.945312 -5.644532,-1.585937 -0.488281,-0.214844 -1.066406,-0.03125 -1.371093,0.425781 l -0.308594,0.488282 c -0.121094,0.183593 -0.121094,0.367187 -0.08984,0.550781 0.0625,0.183593 0.214844,0.335937 0.398438,0.394531 1.613281,0.703125 7.078125,2.351562 9.179687,1.40625 0.398438,-0.183594 0.671875,-0.460938 0.796875,-0.824219 z m -11.078125,-2.535156 c 0.0625,-0.152344 0.0625,-0.273437 0.0625,-0.394531 0,-0.246094 -0.152344,-0.550782 -0.335937,-0.640625 l -1.191407,-0.703125 c -0.394531,-0.183594 -0.730468,-0.210938 -1.097656,-0.121094 -0.363281,0.152344 -0.671875,0.457031 -0.851562,0.824219 l -0.03125,0.089843 c -0.183594,0.398438 -0.03125,0.824219 0.304687,1.007813 l 1.648438,0.761719 c 0.488281,0.214844 1.035156,0.03125 1.28125,-0.457032 z m 0,0"
               id="path2586" />
          </g>
        </g>
      </g>
      <g
         fill="#000000"
         fill-opacity="1"
         id="g2600"
         transform="matrix(0.35277778,0,0,0.35277778,46.688136,63.56492)">
        <g
           transform="translate(156.24963,119.96374)"
           id="g2598">
          <g
             id="g2596">
            <path
               d="m -6.222656,-11.441406 c -0.09375,0.0625 -0.152344,0.214844 -0.0625,0.304687 0,0.03125 1.496094,2.410157 0.976562,4.636719 -0.914062,-0.304688 -1.859375,-0.425781 -2.714844,-0.394531 -1.554687,0.089843 -2.65625,0.730469 -3.050781,1.828125 -0.246093,0.671875 -0.214843,1.34375 0.121094,2.015625 0.671875,1.28125 2.410156,2.378906 4.789063,3.050781 2.074218,0.578125 3.570312,-0.121094 4.273437,-0.945312 0.394531,-0.488282 0.578125,-1.039063 0.578125,-1.617188 0,-0.398438 -0.089844,-0.761719 -0.273438,-1.128906 -0.582031,-1.21875 -1.863281,-2.136719 -3.265624,-2.65625 0.0625,-0.363282 0.121093,-0.730469 0.121093,-1.128906 0,-0.394532 -0.058593,-0.851563 -0.152343,-1.308594 -0.304688,-1.4375 -1.003907,-2.535156 -1.035157,-2.59375 -0.0625,-0.09375 -0.214843,-0.125 -0.304687,-0.0625 z m 3.8125,7.292968 c 0.367187,0.488282 0.398437,1.007813 0.089844,1.464844 -0.457032,0.671875 -1.738282,1.21875 -3.902344,0.640625 -0.917969,-0.246093 -1.710938,-0.613281 -2.320313,-1.070312 0.578125,-0.027344 1.375,-0.242188 2.257813,-1.003907 0.578125,-0.488281 1.007812,-1.039062 1.25,-1.710937 0.03125,-0.03125 0.03125,-0.058594 0.03125,-0.089844 1.039062,0.394531 1.984375,1.007813 2.59375,1.769531 z m -3.019532,-1.921874 c 0,0.03125 0,0.058593 -0.03125,0.089843 -0.183593,0.457031 -0.578124,0.824219 -1.128906,1.039063 -1.25,0.488281 -2.929687,0.183594 -3.449218,0 -0.02734,-0.09375 -0.02734,-0.152344 -0.02734,-0.214844 -0.0625,-0.425781 0.152344,-0.761719 0.578125,-0.945312 0.519531,-0.246094 1.097656,-0.335938 1.496093,-0.335938 0.792969,-0.0625 1.707032,0.089844 2.5625,0.367188 z m 0,0"
               id="path2594" />
          </g>
        </g>
      </g>
      <g
         fill="#000000"
         fill-opacity="1"
         id="g2608"
         transform="matrix(0.35277778,0,0,0.35277778,46.688136,63.56492)">
        <g
           transform="translate(156.24963,109.19389)"
           id="g2606">
          <g
             id="g2604">
            <path
               d="m -6.222656,-8.144531 c -0.0625,0.121093 0,0.242187 0.121094,0.304687 0.03125,0.03125 4.574218,2.257813 6.46875,4.210938 0,0 0.488281,0.609375 0.183593,1.128906 -0.335937,0.578125 -1.863281,1.339844 -8.054687,0.394531 0,-0.03125 0,-0.03125 -0.03125,-0.03125 -1.28125,-1.160156 -3.660156,-2.621093 -6.164063,-3.78125 0.03125,-0.582031 0.0625,-1.128906 0.0625,-1.679687 0,-1.617188 -0.183593,-3.203125 -0.703125,-4.484375 -0.03125,-0.121094 -0.183594,-0.152344 -0.273437,-0.121094 -0.121094,0.03125 -0.183594,0.183594 -0.152344,0.304687 0.640625,1.617188 0.761719,3.722657 0.609375,5.765626 -2.746094,-1.25 -5.582031,-2.136719 -7.140625,-1.832032 h -0.03125 c -0.578125,0.125 -0.945313,0.398438 -1.15625,0.824219 -0.246094,0.519531 -0.214844,1.101563 0.08984,1.679687 0.855469,1.496094 3.660156,2.929688 7.628906,3.996094 -0.152344,0.761719 -0.304687,1.402344 -0.429687,1.921875 -0.394532,1.554688 -0.335938,2.898438 0.152343,3.660157 0.214844,0.335937 0.519531,0.582031 0.886719,0.640624 0.121094,0.03125 0.242188,-0.058593 0.273438,-0.179687 0.03125,-0.125 -0.05859,-0.246094 -0.183594,-0.277344 -0.242188,-0.03125 -0.457032,-0.183593 -0.609375,-0.425781 -0.425781,-0.671875 -0.457031,-1.863281 -0.08984,-3.324219 l 0.425781,-1.894531 c 1.984375,0.488281 4.242188,0.917969 6.652344,1.191406 4.453125,0.519532 6.496094,0.550782 7.808594,0.0625002 0.792968,-0.2773442 1.160156,-0.8242182 1.3125,-1.2539062 0.121094,-0.242188 0.152344,-0.515625 0.152344,-0.792969 0,-0.335937 -0.058594,-0.640625 -0.183594,-0.882812 C 1.25,-3.296875 1.007812,-3.601562 0.703125,-3.90625 V -3.9375 c -1.921875,-2.011719 -6.410156,-4.207031 -6.621094,-4.300781 -0.121093,-0.058594 -0.246093,-0.03125 -0.304687,0.09375 z m -15.195313,0.945312 c 0,-0.214843 0.121094,-0.304687 0.214844,-0.335937 1.492187,-0.273438 4.300781,0.640625 7.015625,1.890625 -0.05859,0.734375 -0.121094,1.433593 -0.242188,2.105469 -5.371093,-1.402344 -6.957031,-2.898438 -6.988281,-3.660157 z m 12.082031,4.789063 c -1.769531,-0.335938 -3.324218,-0.671875 -4.636718,-1.007813 0.08984,-0.640625 0.152344,-1.339843 0.210937,-2.042969 2.105469,1.007813 4.121094,2.195313 5.402344,3.203126 C -8.664062,-2.289062 -9,-2.347656 -9.335938,-2.410156 Z m 0,0"
               id="path2602" />
          </g>
        </g>
      </g>
      <g
         fill="#000000"
         fill-opacity="1"
         id="g2616"
         transform="matrix(0.35277778,0,0,0.35277778,46.688136,63.56492)">
        <g
           transform="translate(156.24963,101.35295)"
           id="g2614">
          <g
             id="g2612">
            <path
               d="m -6.253906,-9.457031 c -0.0625,0.089843 -0.03125,0.210937 0.058594,0.304687 3.417968,2.5625 4.792968,4.117188 5.28125,5.429688 v 0.03125 c 0.152343,0.550781 0.027343,1.035156 -0.367188,1.371094 -0.761719,0.671874 -2.347656,0.703124 -4.117188,0.09375 -0.125,-0.609376 -0.671874,-3.050782 -2.71875,-4.148438 -0.667968,-0.335938 -1.21875,-0.398438 -1.644531,-0.335938 -0.09375,0 -0.214843,0.03125 -0.304687,0.058594 -0.183594,0.0625 -0.308594,0.125 -0.429688,0.183594 -0.546875,0.335938 -0.882812,0.945312 -0.882812,1.558594 0,1.402344 1.402344,3.414062 5.246094,4.910156 2.320312,0.886719 3.753906,0.425781 4.546874,-0.121094 0.976563,-0.671875 1.34375,-1.679687 1.34375,-2.320312 0,-0.457032 -0.09375,-0.914063 -0.246093,-1.371094 0,0 0,-0.03125 -0.03125,-0.03125 -0.546875,-1.585938 -2.195313,-3.234375 -5.398438,-5.675781 -0.121093,-0.058594 -0.246093,-0.058594 -0.335937,0.0625 z m 0.242187,6.984375 c -3.082031,-1.28125 -3.996093,-2.347656 -4.210937,-3.019532 -0.08984,-0.214843 -0.05859,-0.394531 0.03125,-0.546874 l 0.246094,-0.183594 c 0.457031,-0.152344 1.035156,-0.0625 1.617187,0.242187 1.617187,0.886719 2.226563,2.746094 2.410156,3.570313 z m 0,0"
               id="path2610" />
          </g>
        </g>
      </g>
      <g
         fill="#000000"
         fill-opacity="1"
         id="g2624"
         transform="matrix(0.35277778,0,0,0.35277778,46.688136,63.56492)">
        <g
           transform="translate(156.24963,92.261121)"
           id="g2622">
          <g
             id="g2620">
            <path
               d="m -6.285156,-10.800781 c -0.0625,0.09375 -0.0625,0.246093 0.03125,0.304687 3.933594,2.960938 5.523437,4.761719 6.070312,6.253906 v 0.03125 c 0.183594,0.703126 0.03125,1.28125 -0.457031,1.738282 -1.039063,0.886718 -3.140625,0.855468 -5.371094,-0.089844 -4.210937,-1.738281 -4.878906,-3.203125 -4.789062,-3.570312 0.121093,-0.519532 0.761719,-0.703126 0.792969,-0.703126 0.398437,-0.058593 0.886718,-0.058593 1.375,0 0.121093,0.03125 0.242187,-0.058593 0.273437,-0.179687 0,-0.125 -0.089844,-0.246094 -0.214844,-0.246094 -1.097656,-0.183593 -2.074219,-0.03125 -2.683593,0.457031 -0.425782,0.304688 -0.671876,0.765626 -0.761719,1.3125 -0.183594,1.402344 1.21875,3.722657 5.824219,5.460938 2.65625,1.039062 4.304687,0.488281 5.21875,-0.121094 1.097656,-0.761718 1.496093,-1.890625 1.496093,-2.625 0,-0.519531 -0.09375,-1.035156 -0.277343,-1.554687 v -0.0625 c -0.667969,-1.800781 -2.53125,-3.691407 -6.222657,-6.46875 -0.089843,-0.05859 -0.242187,-0.02734 -0.304687,0.0625 z m 0,0"
               id="path2618" />
          </g>
        </g>
      </g>
      <g
         fill="#000000"
         fill-opacity="1"
         id="g2632"
         transform="matrix(0.35277778,0,0,0.35277778,46.688136,63.56492)">
        <g
           transform="translate(156.24963,81.857381)"
           id="g2630">
          <g
             id="g2628">
            <path
               d="m -6.316406,-11.074219 c -0.03125,0.121094 0.03125,0.242188 0.121094,0.273438 2.167968,0.425781 5.128906,1.28125 6.773437,2.195312 0.183594,0.15625 0.640625,0.550781 0.398437,0.976563 -0.121093,0.214844 -1.3125,0.519531 -4.300781,0.125 -2.625,-0.335938 -5.460937,-1.101563 -7.566406,-1.984375 -0.488281,-0.183594 -1.101563,-0.0625 -1.527344,0.425781 l -0.425781,0.457031 c -0.152344,0.15625 -0.246094,0.398438 -0.246094,0.613281 0.03125,0.210938 0.125,0.363282 0.304688,0.515626 0.824218,0.429687 1.984375,0.886718 3.328125,1.253906 h -0.0625 c -0.730469,0.183594 -1.28125,0.609375 -1.554688,1.15625 -0.183593,0.429687 -0.183593,1.070312 0.05859,1.710937 0.335937,0.855469 1.34375,2.441407 4.363281,3.2656252 2.535156,0.6093748 3.90625,0.1796876 4.640625,-0.2148442 0.730469,-0.488281 0.914063,-1.128906 0.972657,-1.375 0.03125,-0.121093 0.03125,-0.210937 0.03125,-0.332031 0,-0.671875 -0.394532,-1.464843 -1.402344,-2.199219 -0.0625,-0.03125 -0.089844,-0.058593 -0.121094,-0.121093 -0.03125,0 -0.03125,-0.03125 -0.0625,-0.03125 -0.488281,-0.335938 -1.066406,-0.671875 -1.832031,-0.976563 1.769531,0.121094 4.394531,0.152344 5.769531,-0.671875 0.515625,-0.304687 0.824219,-0.699219 0.882812,-1.21875 v -0.121093 c 0,-0.976563 -1.339843,-1.863282 -4.085937,-2.808594 -2.046875,-0.671875 -4.152344,-1.097656 -4.179687,-1.128906 -0.125,0.03125 -0.246094,0.09375 -0.277344,0.214843 z m -1.921875,5.125 c 0.609375,0.152344 1.222656,0.242188 1.863281,0.335938 1.585938,0.546875 2.746094,1.097656 3.539062,1.648437 0.640626,0.488282 0.667969,1.066406 0.515626,1.308594 -0.152344,0.277344 -0.515626,0.917969 -4.027344,0.183594 -3.292969,-0.667969 -3.84375,-2.105469 -3.78125,-2.5625 0.0625,-0.335938 0.394531,-0.640625 0.730468,-0.761719 0.304688,-0.089844 0.703126,-0.152344 1.160157,-0.152344 z m 0,0"
               id="path2626" />
          </g>
        </g>
      </g>
      <g
         fill="#000000"
         fill-opacity="1"
         id="g2646"
         transform="matrix(0.35277778,0,0,0.35277778,46.688136,63.56492)">
        <g
           transform="translate(133.29866,313.16884)"
           id="g2644">
          <g
             id="g2642">
            <path
               d="m 2.046875,0.109375 c -0.1875,0 -0.339844,-0.0742188 -0.453125,-0.21875 C 1.476562,-0.265625 1.421875,-0.441406 1.421875,-0.640625 1.453125,-0.984375 1.53125,-1.1875 1.65625,-1.25 1.78125,-1.320312 2,-1.359375 2.3125,-1.359375 c 0.65625,0 1.140625,-0.117187 1.453125,-0.359375 C 4.085938,-1.957031 4.285156,-2.25 4.359375,-2.59375 4.441406,-2.945312 4.5,-3.410156 4.53125,-3.984375 v -13.5 C 4.5,-18.046875 4.441406,-18.503906 4.359375,-18.859375 4.285156,-19.210938 4.085938,-19.507812 3.765625,-19.75 3.453125,-19.988281 2.96875,-20.109375 2.3125,-20.109375 H 2.109375 c -0.230469,0 -0.398437,-0.03516 -0.5,-0.109375 -0.09375,-0.08203 -0.15625,-0.28125 -0.1875,-0.59375 0,-0.207031 0.054687,-0.382812 0.171875,-0.53125 0.113281,-0.144531 0.265625,-0.21875 0.453125,-0.21875 1.46875,0.0625 2.828125,0.09375 4.078125,0.09375 h 5.09375 c 1.976562,0 3.890625,0.414062 5.734375,1.234375 1.851563,0.8125 2.78125,2.445313 2.78125,4.890625 0,1.367188 -0.414063,2.578125 -1.234375,3.640625 -0.8125,1.0625 -1.871094,1.890625 -3.171875,2.484375 -1.304687,0.59375 -2.65625,0.890625 -4.0625,0.890625 -1.304687,0 -2.4375,-0.179687 -3.40625,-0.546875 v 4.890625 C 7.878906,-3.410156 7.925781,-2.945312 8,-2.59375 c 0.082031,0.34375 0.28125,0.636719 0.59375,0.875 0.320312,0.242188 0.8125,0.359375 1.46875,0.359375 h 0.203125 c 0.226563,0 0.394531,0.042969 0.5,0.125 0.101563,0.074219 0.164063,0.273437 0.1875,0.59375 0,0.199219 -0.05469,0.375 -0.15625,0.53125 -0.105469,0.1445312 -0.257813,0.21875 -0.453125,0.21875 C 8.882812,0.0351562 7.46875,0 6.09375,0 4.863281,0 3.515625,0.0351562 2.046875,0.109375 Z m 8.21875,-9.96875 c 0.820313,0 1.664063,-0.160156 2.53125,-0.484375 0.875,-0.332031 1.617187,-0.898438 2.234375,-1.703125 0.613281,-0.8125 0.921875,-1.875 0.921875,-3.1875 0,-2 -0.636719,-3.328125 -1.90625,-3.984375 C 12.773438,-19.875 11.425781,-20.203125 10,-20.203125 c -0.59375,0 -1.039062,0.0625 -1.328125,0.1875 -0.292969,0.125 -0.5,0.371094 -0.625,0.734375 -0.125,0.355469 -0.1875,0.917969 -0.1875,1.6875 v 7.359375 c 0.539063,0.25 1.34375,0.375 2.40625,0.375 z m 0,0"
               id="path2640" />
          </g>
        </g>
      </g>
      <g
         fill="#000000"
         fill-opacity="1"
         id="g2654"
         transform="matrix(0.35277778,0,0,0.35277778,46.688136,63.56492)">
        <g
           transform="translate(155.09679,313.16884)"
           id="g2652">
          <g
             id="g2650">
            <path
               d="m 2.078125,0.109375 c -0.210937,0 -0.367187,-0.0742188 -0.46875,-0.21875 C 1.515625,-0.265625 1.46875,-0.441406 1.46875,-0.640625 1.488281,-0.984375 1.554688,-1.1875 1.671875,-1.25 1.785156,-1.320312 2,-1.359375 2.3125,-1.359375 c 0.65625,0 1.140625,-0.117187 1.453125,-0.359375 C 4.085938,-1.957031 4.285156,-2.25 4.359375,-2.59375 4.441406,-2.945312 4.5,-3.410156 4.53125,-3.984375 v -13.46875 C 4.5,-18.035156 4.441406,-18.5 4.359375,-18.84375 c -0.074219,-0.34375 -0.273437,-0.640625 -0.59375,-0.890625 -0.3125,-0.25 -0.796875,-0.375 -1.453125,-0.375 H 2.109375 c -0.230469,0 -0.390625,-0.03516 -0.484375,-0.109375 C 1.539062,-20.30078 1.488281,-20.5 1.46875,-20.8125 c 0,-0.207031 0.046875,-0.382812 0.140625,-0.53125 0.101563,-0.144531 0.257813,-0.21875 0.46875,-0.21875 1.46875,0.0625 2.816406,0.09375 4.046875,0.09375 h 5.84375 c 1.75,0.02344 3.207031,0.304688 4.375,0.84375 1.164062,0.53125 2.019531,1.214844 2.5625,2.046875 0.550781,0.824219 0.828125,1.710937 0.828125,2.65625 0,1.25 -0.496094,2.398437 -1.484375,3.4375 -0.992188,1.042969 -2.335938,1.792969 -4.03125,2.25 l 0.578125,0.921875 c 0.945313,1.542969 1.804687,2.867188 2.578125,3.96875 0.769531,1.09375 1.613281,2.117188 2.53125,3.0625 0.632812,0.523438 1.3125,0.828125 2.03125,0.921875 0.05078,0 0.15625,0.00781 0.3125,0.015625 0.15625,0.011719 0.285156,0.074219 0.390625,0.1875 0.101563,0.117188 0.15625,0.289062 0.15625,0.515625 0,0.199219 -0.05469,0.375 -0.15625,0.53125 -0.105469,0.1445312 -0.261719,0.21875 -0.46875,0.21875 L 21.296875,0.0625 C 20.296875,0.0195312 19.566406,0 19.109375,0 18.203125,-0.175781 17.425781,-0.5 16.78125,-0.96875 16.132812,-1.4375 15.492188,-2.097656 14.859375,-2.953125 c -0.65625,-0.863281 -1.574219,-2.269531 -2.75,-4.21875 L 11.5,-8.15625 C 11.15625,-8.6875 10.820312,-9.046875 10.5,-9.234375 10.1875,-9.429688 9.644531,-9.53125 8.875,-9.53125 H 7.890625 v 5.546875 c 0.019531,0.574219 0.066406,1.039063 0.140625,1.390625 0.082031,0.34375 0.28125,0.636719 0.59375,0.875 0.320312,0.242188 0.816406,0.359375 1.484375,0.359375 H 10.3125 c 0.195312,0 0.347656,0.042969 0.453125,0.125 0.101563,0.074219 0.164063,0.273437 0.1875,0.59375 0,0.199219 -0.05469,0.375 -0.15625,0.53125 -0.105469,0.1445312 -0.257813,0.21875 -0.453125,0.21875 C 8.882812,0.0351562 7.46875,0 6.09375,0 4.882812,0 3.546875,0.0351562 2.078125,0.109375 Z m 8.8125,-10.953125 c 3.375,0 5.0625,-1.585938 5.0625,-4.765625 0,-1.289063 -0.445313,-2.378906 -1.328125,-3.265625 -0.886719,-0.882812 -2.339844,-1.328125 -4.359375,-1.328125 -0.65625,0 -1.15625,0.07813 -1.5,0.234375 -0.335937,0.15625 -0.5625,0.429688 -0.6875,0.8125 -0.125,0.386719 -0.1875,0.980469 -0.1875,1.78125 v 6.53125 z m 0,0"
               id="path2648" />
          </g>
        </g>
      </g>
      <g
         fill="#000000"
         fill-opacity="1"
         id="g2662"
         transform="matrix(0.35277778,0,0,0.35277778,46.688136,63.56492)">
        <g
           transform="translate(179.1733,313.16884)"
           id="g2660">
          <g
             id="g2658">
            <path
               d="M 12.453125,0.6875 C 10.296875,0.6875 8.394531,0.171875 6.75,-0.859375 5.101562,-1.898438 3.832031,-3.269531 2.9375,-4.96875 2.039062,-6.664062 1.59375,-8.488281 1.59375,-10.4375 c 0,-2.382812 0.535156,-4.460938 1.609375,-6.234375 1.082031,-1.769531 2.460937,-3.125 4.140625,-4.0625 1.675781,-0.9375 3.378906,-1.40625 5.109375,-1.40625 2.175781,0 4.097656,0.515625 5.765625,1.546875 1.664062,1.03125 2.945312,2.390625 3.84375,4.078125 0.894531,1.6875 1.34375,3.507813 1.34375,5.453125 0,2.386719 -0.546875,4.46875 -1.640625,6.25 -1.085937,1.78125 -2.480469,3.148438 -4.1875,4.09375 -1.699219,0.9375 -3.40625,1.40625 -5.125,1.40625 z m -0.03125,-1.5 c 1.539063,0 2.828125,-0.457031 3.859375,-1.375 1.03125,-0.925781 1.800781,-2.164062 2.3125,-3.71875 0.507812,-1.550781 0.765625,-3.269531 0.765625,-5.15625 0,-1.738281 -0.261719,-3.335938 -0.78125,-4.796875 C 18.054688,-17.328125 17.269531,-18.5 16.21875,-19.375 c -1.042969,-0.875 -2.308594,-1.3125 -3.796875,-1.3125 -2.273437,0 -3.980469,0.960938 -5.125,2.875 -1.148437,1.917969 -1.71875,4.339844 -1.71875,7.265625 0,1.773437 0.253906,3.398437 0.765625,4.875 0.507812,1.46875 1.273438,2.648437 2.296875,3.53125 1.019531,0.886719 2.28125,1.328125 3.78125,1.328125 z m 0,0"
               id="path2656" />
          </g>
        </g>
      </g>
      <g
         fill="#000000"
         fill-opacity="1"
         id="g2670"
         transform="matrix(0.35277778,0,0,0.35277778,46.688136,63.56492)">
        <g
           transform="translate(205.42616,313.16884)"
           id="g2668">
          <g
             id="g2666">
            <path
               d="m 0.203125,0.109375 c -0.20703125,0 -0.359375,-0.0742188 -0.453125,-0.21875 -0.101562,-0.15625 -0.15625,-0.332031 -0.15625,-0.53125 0.023438,-0.34375 0.089844,-0.546875 0.203125,-0.609375 0.1171875,-0.070312 0.25,-0.109375 0.40625,-0.109375 0.15625,0 0.257813,0 0.3125,0 0.675781,0 1.171875,-0.175781 1.484375,-0.53125 0.320312,-0.351563 0.578125,-0.75 0.765625,-1.1875 0.195313,-0.4375 0.328125,-0.738281 0.390625,-0.90625 L 9.109375,-18.0625 c 0.132813,-0.34375 0.203125,-0.613281 0.203125,-0.8125 0,-0.40625 -0.15625,-0.695312 -0.46875,-0.875 -0.3125,-0.1875 -0.757812,-0.335938 -1.328125,-0.453125 -0.386719,-0.07031 -0.625,-0.140625 -0.71875,-0.203125 -0.085937,-0.07031 -0.125,-0.265625 -0.125,-0.578125 0,-0.269531 0.070313,-0.453125 0.21875,-0.546875 0.144531,-0.09375 0.375,-0.140625 0.6875,-0.140625 1.132813,0 2.035156,0.08984 2.703125,0.265625 0.675781,0.167969 1.265625,0.507812 1.765625,1.015625 0.5,0.511719 0.960937,1.289063 1.390625,2.328125 l 5.71875,14.078125 c 0.332031,0.867187 0.65625,1.515625 0.96875,1.953125 0.320312,0.429688 0.800781,0.652344 1.4375,0.671875 h 0.203125 c 0.226563,0 0.382813,0.042969 0.46875,0.125 0.09375,0.074219 0.15625,0.273437 0.1875,0.59375 0,0.199219 -0.05469,0.375 -0.15625,0.53125 -0.105469,0.1445312 -0.261719,0.21875 -0.46875,0.21875 C 20.347656,0.0351562 19.101562,0 18.0625,0 c -1.367188,0 -2.773438,0.0351562 -4.21875,0.109375 -0.210938,0 -0.367188,-0.0742188 -0.46875,-0.21875 -0.09375,-0.15625 -0.140625,-0.332031 -0.140625,-0.53125 0.01953,-0.320313 0.07031,-0.519531 0.15625,-0.59375 0.09375,-0.082031 0.253906,-0.125 0.484375,-0.125 0.769531,0 1.3125,-0.070313 1.625,-0.21875 0.320312,-0.144531 0.484375,-0.410156 0.484375,-0.796875 0,-0.300781 -0.136719,-0.835938 -0.40625,-1.609375 l -1.15625,-2.8125 h -8.40625 c -0.5625,1.40625 -0.886719,2.226563 -0.96875,2.453125 C 4.972656,-4.125 4.9375,-4.003906 4.9375,-3.984375 4.664062,-3.117188 4.53125,-2.5625 4.53125,-2.3125 c 0,0.386719 0.164062,0.640625 0.5,0.765625 0.34375,0.125 0.988281,0.1875 1.9375,0.1875 h 0.203125 c 0.226563,0 0.390625,0.042969 0.484375,0.125 0.09375,0.074219 0.148438,0.273437 0.171875,0.59375 0,0.199219 -0.054687,0.375 -0.15625,0.53125 C 7.566406,0.0351562 7.414062,0.109375 7.21875,0.109375 5.757812,0.0351562 4.519531,0 3.5,0 2.78125,0 1.679688,0.0351562 0.203125,0.109375 Z m 6.46875,-8.375 H 13.8125 l -3.4375,-8.75 h -0.109375 z m 0,0"
               id="path2664" />
          </g>
        </g>
      </g>
      <g
         fill="#000000"
         fill-opacity="1"
         id="g2690"
         transform="matrix(0.35277778,0,0,0.35277778,46.688136,63.56492)">
        <g
           transform="translate(117.03085,341.13596)"
           id="g2688">
          <g
             id="g2686">
            <path
               d="m 2.046875,0.109375 c -0.1875,0 -0.335937,-0.0742188 -0.4375,-0.21875 C 1.515625,-0.265625 1.46875,-0.441406 1.46875,-0.640625 1.488281,-0.984375 1.554688,-1.1875 1.671875,-1.25 1.785156,-1.320312 2,-1.359375 2.3125,-1.359375 c 0.65625,0 1.140625,-0.117187 1.453125,-0.359375 C 4.085938,-1.957031 4.285156,-2.25 4.359375,-2.59375 4.441406,-2.945312 4.5,-3.410156 4.53125,-3.984375 v -13.5 C 4.5,-18.046875 4.441406,-18.503906 4.359375,-18.859375 4.285156,-19.210938 4.085938,-19.507812 3.765625,-19.75 3.453125,-19.988281 2.96875,-20.109375 2.3125,-20.109375 H 2.109375 c -0.230469,0 -0.390625,-0.03516 -0.484375,-0.109375 C 1.539062,-20.30078 1.488281,-20.5 1.46875,-20.8125 c 0,-0.207031 0.046875,-0.382812 0.140625,-0.53125 0.101563,-0.144531 0.25,-0.21875 0.4375,-0.21875 1.488281,0.0625 2.835937,0.09375 4.046875,0.09375 1.351562,0 2.769531,-0.03125 4.25,-0.09375 0.195312,0 0.347656,0.07422 0.453125,0.21875 0.101563,0.148438 0.15625,0.324219 0.15625,0.53125 -0.02344,0.335938 -0.09375,0.539062 -0.21875,0.609375 -0.125,0.0625 -0.335937,0.09375 -0.625,0.09375 -0.667969,0 -1.164063,0.121094 -1.484375,0.359375 -0.3125,0.242188 -0.511719,0.539062 -0.59375,0.890625 -0.074219,0.355469 -0.121094,0.8125 -0.140625,1.375 V -3.46875 c 0.039063,0.480469 0.09375,0.851562 0.15625,1.109375 0.070313,0.261719 0.28125,0.5 0.625,0.71875 0.34375,0.210937 0.875,0.304687 1.59375,0.28125 h 3.0625 c 0.800781,-0.019531 1.40625,-0.148437 1.8125,-0.390625 0.40625,-0.238281 0.726563,-0.609375 0.96875,-1.109375 0.238281,-0.5 0.523437,-1.316406 0.859375,-2.453125 0.164062,-0.40625 0.550781,-0.5625 1.15625,-0.46875 0.207031,0.042969 0.398438,0.132812 0.578125,0.265625 0.1875,0.136719 0.269531,0.308594 0.25,0.515625 l -0.6875,4.28125 c -0.0625,0.304688 -0.167969,0.5 -0.3125,0.59375 C 17.816406,-0.0390625 17.59375,0 17.28125,0 H 6.125 C 4.894531,0 3.535156,0.0351562 2.046875,0.109375 Z m 0,0"
               id="path2684" />
          </g>
        </g>
      </g>
      <g
         fill="#000000"
         fill-opacity="1"
         id="g2698"
         transform="matrix(0.35277778,0,0,0.35277778,46.688136,63.56492)">
        <g
           transform="translate(137.7068,341.13596)"
           id="g2696">
          <g
             id="g2694">
            <path
               d="m 0.203125,0.109375 c -0.20703125,0 -0.359375,-0.0742188 -0.453125,-0.21875 -0.101562,-0.15625 -0.15625,-0.332031 -0.15625,-0.53125 0.023438,-0.34375 0.089844,-0.546875 0.203125,-0.609375 0.1171875,-0.070312 0.25,-0.109375 0.40625,-0.109375 0.15625,0 0.257813,0 0.3125,0 0.675781,0 1.171875,-0.175781 1.484375,-0.53125 0.320312,-0.351563 0.578125,-0.75 0.765625,-1.1875 0.195313,-0.4375 0.328125,-0.738281 0.390625,-0.90625 L 9.109375,-18.0625 c 0.132813,-0.34375 0.203125,-0.613281 0.203125,-0.8125 0,-0.40625 -0.15625,-0.695312 -0.46875,-0.875 -0.3125,-0.1875 -0.757812,-0.335938 -1.328125,-0.453125 -0.386719,-0.07031 -0.625,-0.140625 -0.71875,-0.203125 -0.085937,-0.07031 -0.125,-0.265625 -0.125,-0.578125 0,-0.269531 0.070313,-0.453125 0.21875,-0.546875 0.144531,-0.09375 0.375,-0.140625 0.6875,-0.140625 1.132813,0 2.035156,0.08984 2.703125,0.265625 0.675781,0.167969 1.265625,0.507812 1.765625,1.015625 0.5,0.511719 0.960937,1.289063 1.390625,2.328125 l 5.71875,14.078125 c 0.332031,0.867187 0.65625,1.515625 0.96875,1.953125 0.320312,0.429688 0.800781,0.652344 1.4375,0.671875 h 0.203125 c 0.226563,0 0.382813,0.042969 0.46875,0.125 0.09375,0.074219 0.15625,0.273437 0.1875,0.59375 0,0.199219 -0.05469,0.375 -0.15625,0.53125 -0.105469,0.1445312 -0.261719,0.21875 -0.46875,0.21875 C 20.347656,0.0351562 19.101562,0 18.0625,0 c -1.367188,0 -2.773438,0.0351562 -4.21875,0.109375 -0.210938,0 -0.367188,-0.0742188 -0.46875,-0.21875 -0.09375,-0.15625 -0.140625,-0.332031 -0.140625,-0.53125 0.01953,-0.320313 0.07031,-0.519531 0.15625,-0.59375 0.09375,-0.082031 0.253906,-0.125 0.484375,-0.125 0.769531,0 1.3125,-0.070313 1.625,-0.21875 0.320312,-0.144531 0.484375,-0.410156 0.484375,-0.796875 0,-0.300781 -0.136719,-0.835938 -0.40625,-1.609375 l -1.15625,-2.8125 h -8.40625 c -0.5625,1.40625 -0.886719,2.226563 -0.96875,2.453125 C 4.972656,-4.125 4.9375,-4.003906 4.9375,-3.984375 4.664062,-3.117188 4.53125,-2.5625 4.53125,-2.3125 c 0,0.386719 0.164062,0.640625 0.5,0.765625 0.34375,0.125 0.988281,0.1875 1.9375,0.1875 h 0.203125 c 0.226563,0 0.390625,0.042969 0.484375,0.125 0.09375,0.074219 0.148438,0.273437 0.171875,0.59375 0,0.199219 -0.054687,0.375 -0.15625,0.53125 C 7.566406,0.0351562 7.414062,0.109375 7.21875,0.109375 5.757812,0.0351562 4.519531,0 3.5,0 2.78125,0 1.679688,0.0351562 0.203125,0.109375 Z m 6.46875,-8.375 H 13.8125 l -3.4375,-8.75 h -0.109375 z m 0,0"
               id="path2692" />
          </g>
        </g>
      </g>
      <g
         fill="#000000"
         fill-opacity="1"
         id="g2712"
         transform="matrix(0.35277778,0,0,0.35277778,46.688136,63.56492)">
        <g
           transform="translate(170.01319,341.13596)"
           id="g2710">
          <g
             id="g2708">
            <path
               d="m 2.046875,0.109375 c -0.1875,0 -0.339844,-0.0742188 -0.453125,-0.21875 C 1.476562,-0.265625 1.421875,-0.441406 1.421875,-0.640625 1.453125,-0.984375 1.53125,-1.1875 1.65625,-1.25 1.78125,-1.320312 2,-1.359375 2.3125,-1.359375 c 0.65625,0 1.140625,-0.117187 1.453125,-0.359375 C 4.085938,-1.957031 4.285156,-2.25 4.359375,-2.59375 4.441406,-2.945312 4.5,-3.410156 4.53125,-3.984375 v -13.5 C 4.5,-18.046875 4.441406,-18.503906 4.359375,-18.859375 4.285156,-19.210938 4.085938,-19.507812 3.765625,-19.75 3.453125,-19.988281 2.96875,-20.109375 2.3125,-20.109375 H 2.109375 c -0.230469,0 -0.398437,-0.03516 -0.5,-0.109375 -0.09375,-0.08203 -0.15625,-0.28125 -0.1875,-0.59375 0,-0.207031 0.054687,-0.382812 0.171875,-0.53125 0.113281,-0.144531 0.265625,-0.21875 0.453125,-0.21875 1.46875,0.0625 2.828125,0.09375 4.078125,0.09375 h 5.09375 c 1.976562,0 3.890625,0.414062 5.734375,1.234375 1.851563,0.8125 2.78125,2.445313 2.78125,4.890625 0,1.367188 -0.414063,2.578125 -1.234375,3.640625 -0.8125,1.0625 -1.871094,1.890625 -3.171875,2.484375 -1.304687,0.59375 -2.65625,0.890625 -4.0625,0.890625 -1.304687,0 -2.4375,-0.179687 -3.40625,-0.546875 v 4.890625 C 7.878906,-3.410156 7.925781,-2.945312 8,-2.59375 c 0.082031,0.34375 0.28125,0.636719 0.59375,0.875 0.320312,0.242188 0.8125,0.359375 1.46875,0.359375 h 0.203125 c 0.226563,0 0.394531,0.042969 0.5,0.125 0.101563,0.074219 0.164063,0.273437 0.1875,0.59375 0,0.199219 -0.05469,0.375 -0.15625,0.53125 -0.105469,0.1445312 -0.257813,0.21875 -0.453125,0.21875 C 8.882812,0.0351562 7.46875,0 6.09375,0 4.863281,0 3.515625,0.0351562 2.046875,0.109375 Z m 8.21875,-9.96875 c 0.820313,0 1.664063,-0.160156 2.53125,-0.484375 0.875,-0.332031 1.617187,-0.898438 2.234375,-1.703125 0.613281,-0.8125 0.921875,-1.875 0.921875,-3.1875 0,-2 -0.636719,-3.328125 -1.90625,-3.984375 C 12.773438,-19.875 11.425781,-20.203125 10,-20.203125 c -0.59375,0 -1.039062,0.0625 -1.328125,0.1875 -0.292969,0.125 -0.5,0.371094 -0.625,0.734375 -0.125,0.355469 -0.1875,0.917969 -0.1875,1.6875 v 7.359375 c 0.539063,0.25 1.34375,0.375 2.40625,0.375 z m 0,0"
               id="path2706" />
          </g>
        </g>
      </g>
      <g
         fill="#000000"
         fill-opacity="1"
         id="g2720"
         transform="matrix(0.35277778,0,0,0.35277778,46.688136,63.56492)">
        <g
           transform="translate(191.81133,341.13596)"
           id="g2718">
          <g
             id="g2716">
            <path
               d="m 0.203125,0.109375 c -0.20703125,0 -0.359375,-0.0742188 -0.453125,-0.21875 -0.101562,-0.15625 -0.15625,-0.332031 -0.15625,-0.53125 0.023438,-0.34375 0.089844,-0.546875 0.203125,-0.609375 0.1171875,-0.070312 0.25,-0.109375 0.40625,-0.109375 0.15625,0 0.257813,0 0.3125,0 0.675781,0 1.171875,-0.175781 1.484375,-0.53125 0.320312,-0.351563 0.578125,-0.75 0.765625,-1.1875 0.195313,-0.4375 0.328125,-0.738281 0.390625,-0.90625 L 9.109375,-18.0625 c 0.132813,-0.34375 0.203125,-0.613281 0.203125,-0.8125 0,-0.40625 -0.15625,-0.695312 -0.46875,-0.875 -0.3125,-0.1875 -0.757812,-0.335938 -1.328125,-0.453125 -0.386719,-0.07031 -0.625,-0.140625 -0.71875,-0.203125 -0.085937,-0.07031 -0.125,-0.265625 -0.125,-0.578125 0,-0.269531 0.070313,-0.453125 0.21875,-0.546875 0.144531,-0.09375 0.375,-0.140625 0.6875,-0.140625 1.132813,0 2.035156,0.08984 2.703125,0.265625 0.675781,0.167969 1.265625,0.507812 1.765625,1.015625 0.5,0.511719 0.960937,1.289063 1.390625,2.328125 l 5.71875,14.078125 c 0.332031,0.867187 0.65625,1.515625 0.96875,1.953125 0.320312,0.429688 0.800781,0.652344 1.4375,0.671875 h 0.203125 c 0.226563,0 0.382813,0.042969 0.46875,0.125 0.09375,0.074219 0.15625,0.273437 0.1875,0.59375 0,0.199219 -0.05469,0.375 -0.15625,0.53125 -0.105469,0.1445312 -0.261719,0.21875 -0.46875,0.21875 C 20.347656,0.0351562 19.101562,0 18.0625,0 c -1.367188,0 -2.773438,0.0351562 -4.21875,0.109375 -0.210938,0 -0.367188,-0.0742188 -0.46875,-0.21875 -0.09375,-0.15625 -0.140625,-0.332031 -0.140625,-0.53125 0.01953,-0.320313 0.07031,-0.519531 0.15625,-0.59375 0.09375,-0.082031 0.253906,-0.125 0.484375,-0.125 0.769531,0 1.3125,-0.070313 1.625,-0.21875 0.320312,-0.144531 0.484375,-0.410156 0.484375,-0.796875 0,-0.300781 -0.136719,-0.835938 -0.40625,-1.609375 l -1.15625,-2.8125 h -8.40625 c -0.5625,1.40625 -0.886719,2.226563 -0.96875,2.453125 C 4.972656,-4.125 4.9375,-4.003906 4.9375,-3.984375 4.664062,-3.117188 4.53125,-2.5625 4.53125,-2.3125 c 0,0.386719 0.164062,0.640625 0.5,0.765625 0.34375,0.125 0.988281,0.1875 1.9375,0.1875 h 0.203125 c 0.226563,0 0.390625,0.042969 0.484375,0.125 0.09375,0.074219 0.148438,0.273437 0.171875,0.59375 0,0.199219 -0.054687,0.375 -0.15625,0.53125 C 7.566406,0.0351562 7.414062,0.109375 7.21875,0.109375 5.757812,0.0351562 4.519531,0 3.5,0 2.78125,0 1.679688,0.0351562 0.203125,0.109375 Z m 6.46875,-8.375 H 13.8125 l -3.4375,-8.75 h -0.109375 z m 0,0"
               id="path2714" />
          </g>
        </g>
      </g>
      <g
         fill="#000000"
         fill-opacity="1"
         id="g2728"
         transform="matrix(0.35277778,0,0,0.35277778,46.688136,63.56492)">
        <g
           transform="translate(215.27573,341.13596)"
           id="g2726">
          <g
             id="g2724">
            <path
               d="m 2.078125,0.109375 c -0.210937,0 -0.367187,-0.0742188 -0.46875,-0.21875 C 1.515625,-0.265625 1.46875,-0.441406 1.46875,-0.640625 1.488281,-0.984375 1.554688,-1.1875 1.671875,-1.25 1.785156,-1.320312 2,-1.359375 2.3125,-1.359375 c 0.65625,0 1.140625,-0.117187 1.453125,-0.359375 C 4.085938,-1.957031 4.285156,-2.25 4.359375,-2.59375 4.441406,-2.945312 4.5,-3.410156 4.53125,-3.984375 v -13.46875 C 4.5,-18.035156 4.441406,-18.5 4.359375,-18.84375 c -0.074219,-0.34375 -0.273437,-0.640625 -0.59375,-0.890625 -0.3125,-0.25 -0.796875,-0.375 -1.453125,-0.375 H 2.109375 c -0.230469,0 -0.390625,-0.03516 -0.484375,-0.109375 C 1.539062,-20.30078 1.488281,-20.5 1.46875,-20.8125 c 0,-0.207031 0.046875,-0.382812 0.140625,-0.53125 0.101563,-0.144531 0.257813,-0.21875 0.46875,-0.21875 1.46875,0.0625 2.816406,0.09375 4.046875,0.09375 h 5.84375 c 1.75,0.02344 3.207031,0.304688 4.375,0.84375 1.164062,0.53125 2.019531,1.214844 2.5625,2.046875 0.550781,0.824219 0.828125,1.710937 0.828125,2.65625 0,1.25 -0.496094,2.398437 -1.484375,3.4375 -0.992188,1.042969 -2.335938,1.792969 -4.03125,2.25 l 0.578125,0.921875 c 0.945313,1.542969 1.804687,2.867188 2.578125,3.96875 0.769531,1.09375 1.613281,2.117188 2.53125,3.0625 0.632812,0.523438 1.3125,0.828125 2.03125,0.921875 0.05078,0 0.15625,0.00781 0.3125,0.015625 0.15625,0.011719 0.285156,0.074219 0.390625,0.1875 0.101563,0.117188 0.15625,0.289062 0.15625,0.515625 0,0.199219 -0.05469,0.375 -0.15625,0.53125 -0.105469,0.1445312 -0.261719,0.21875 -0.46875,0.21875 L 21.296875,0.0625 C 20.296875,0.0195312 19.566406,0 19.109375,0 18.203125,-0.175781 17.425781,-0.5 16.78125,-0.96875 16.132812,-1.4375 15.492188,-2.097656 14.859375,-2.953125 c -0.65625,-0.863281 -1.574219,-2.269531 -2.75,-4.21875 L 11.5,-8.15625 C 11.15625,-8.6875 10.820312,-9.046875 10.5,-9.234375 10.1875,-9.429688 9.644531,-9.53125 8.875,-9.53125 H 7.890625 v 5.546875 c 0.019531,0.574219 0.066406,1.039063 0.140625,1.390625 0.082031,0.34375 0.28125,0.636719 0.59375,0.875 0.320312,0.242188 0.816406,0.359375 1.484375,0.359375 H 10.3125 c 0.195312,0 0.347656,0.042969 0.453125,0.125 0.101563,0.074219 0.164063,0.273437 0.1875,0.59375 0,0.199219 -0.05469,0.375 -0.15625,0.53125 -0.105469,0.1445312 -0.257813,0.21875 -0.453125,0.21875 C 8.882812,0.0351562 7.46875,0 6.09375,0 4.882812,0 3.546875,0.0351562 2.078125,0.109375 Z m 8.8125,-10.953125 c 3.375,0 5.0625,-1.585938 5.0625,-4.765625 0,-1.289063 -0.445313,-2.378906 -1.328125,-3.265625 -0.886719,-0.882812 -2.339844,-1.328125 -4.359375,-1.328125 -0.65625,0 -1.15625,0.07813 -1.5,0.234375 -0.335937,0.15625 -0.5625,0.429688 -0.6875,0.8125 -0.125,0.386719 -0.1875,0.980469 -0.1875,1.78125 v 6.53125 z m 0,0"
               id="path2722" />
          </g>
        </g>
      </g>
      <g
         fill="#000000"
         fill-opacity="1"
         id="g2736"
         transform="matrix(0.35277778,0,0,0.35277778,46.688136,63.56492)">
        <g
           transform="translate(239.35223,341.13596)"
           id="g2734">
          <g
             id="g2732">
            <path
               d="m 0.203125,0.109375 c -0.20703125,0 -0.359375,-0.0742188 -0.453125,-0.21875 -0.101562,-0.15625 -0.15625,-0.332031 -0.15625,-0.53125 0.023438,-0.34375 0.089844,-0.546875 0.203125,-0.609375 0.1171875,-0.070312 0.25,-0.109375 0.40625,-0.109375 0.15625,0 0.257813,0 0.3125,0 0.675781,0 1.171875,-0.175781 1.484375,-0.53125 0.320312,-0.351563 0.578125,-0.75 0.765625,-1.1875 0.195313,-0.4375 0.328125,-0.738281 0.390625,-0.90625 L 9.109375,-18.0625 c 0.132813,-0.34375 0.203125,-0.613281 0.203125,-0.8125 0,-0.40625 -0.15625,-0.695312 -0.46875,-0.875 -0.3125,-0.1875 -0.757812,-0.335938 -1.328125,-0.453125 -0.386719,-0.07031 -0.625,-0.140625 -0.71875,-0.203125 -0.085937,-0.07031 -0.125,-0.265625 -0.125,-0.578125 0,-0.269531 0.070313,-0.453125 0.21875,-0.546875 0.144531,-0.09375 0.375,-0.140625 0.6875,-0.140625 1.132813,0 2.035156,0.08984 2.703125,0.265625 0.675781,0.167969 1.265625,0.507812 1.765625,1.015625 0.5,0.511719 0.960937,1.289063 1.390625,2.328125 l 5.71875,14.078125 c 0.332031,0.867187 0.65625,1.515625 0.96875,1.953125 0.320312,0.429688 0.800781,0.652344 1.4375,0.671875 h 0.203125 c 0.226563,0 0.382813,0.042969 0.46875,0.125 0.09375,0.074219 0.15625,0.273437 0.1875,0.59375 0,0.199219 -0.05469,0.375 -0.15625,0.53125 -0.105469,0.1445312 -0.261719,0.21875 -0.46875,0.21875 C 20.347656,0.0351562 19.101562,0 18.0625,0 c -1.367188,0 -2.773438,0.0351562 -4.21875,0.109375 -0.210938,0 -0.367188,-0.0742188 -0.46875,-0.21875 -0.09375,-0.15625 -0.140625,-0.332031 -0.140625,-0.53125 0.01953,-0.320313 0.07031,-0.519531 0.15625,-0.59375 0.09375,-0.082031 0.253906,-0.125 0.484375,-0.125 0.769531,0 1.3125,-0.070313 1.625,-0.21875 0.320312,-0.144531 0.484375,-0.410156 0.484375,-0.796875 0,-0.300781 -0.136719,-0.835938 -0.40625,-1.609375 l -1.15625,-2.8125 h -8.40625 c -0.5625,1.40625 -0.886719,2.226563 -0.96875,2.453125 C 4.972656,-4.125 4.9375,-4.003906 4.9375,-3.984375 4.664062,-3.117188 4.53125,-2.5625 4.53125,-2.3125 c 0,0.386719 0.164062,0.640625 0.5,0.765625 0.34375,0.125 0.988281,0.1875 1.9375,0.1875 h 0.203125 c 0.226563,0 0.390625,0.042969 0.484375,0.125 0.09375,0.074219 0.148438,0.273437 0.171875,0.59375 0,0.199219 -0.054687,0.375 -0.15625,0.53125 C 7.566406,0.0351562 7.414062,0.109375 7.21875,0.109375 5.757812,0.0351562 4.519531,0 3.5,0 2.78125,0 1.679688,0.0351562 0.203125,0.109375 Z m 6.46875,-8.375 H 13.8125 l -3.4375,-8.75 h -0.109375 z m 0,0"
               id="path2730" />
          </g>
        </g>
      </g>
    </g>
  </g>
</svg>
